<svg id="Layer_1" data-name="Layer 1" xmlns="http://www.w3.org/2000/svg" width="10.2in" height="21.5in" viewBox="0 0 730.9 1547.7"><title>Artboard 1</title><rect x="37.5" y="203.1" width="640" height="127.13" fill="#f16022"/><path d="M208.9,784.3h4.2a6,6,0,0,0,2.7,4.4,10.2,10.2,0,0,0,6,1.7,9.4,9.4,0,0,0,5.7-1.6,4.9,4.9,0,0,0,2.2-4.1,4.5,4.5,0,0,0-1.6-3.5,12.2,12.2,0,0,0-5-2.3l-4.3-1.1a14.8,14.8,0,0,1-6.8-3.3,7.5,7.5,0,0,1-2.2-5.6,8.4,8.4,0,0,1,3.3-6.9,13.4,13.4,0,0,1,8.6-2.7,12.7,12.7,0,0,1,8.3,2.7,9,9,0,0,1,3.4,6.9h-4.2a5.9,5.9,0,0,0-2.3-4.3,8.6,8.6,0,0,0-5.4-1.6,8.7,8.7,0,0,0-5.4,1.5,4.8,4.8,0,0,0-2.1,4,3.9,3.9,0,0,0,1.5,3.2,13.4,13.4,0,0,0,5,2.1l3.5.9q5.3,1.3,7.5,3.5a7.6,7.6,0,0,1,2.3,5.8,8.9,8.9,0,0,1-3.4,7.3q-3.4,2.7-9.2,2.7a13.8,13.8,0,0,1-8.8-2.7A9.6,9.6,0,0,1,208.9,784.3Z" fill="#f16022"/><path d="M257.4,790.4a12.1,12.1,0,0,1-17,0q-3.2-3.5-3.2-9.4t3.2-9.4a12.1,12.1,0,0,1,17,0q3.2,3.5,3.2,9.4T257.4,790.4Zm-8.5-.1a6.7,6.7,0,0,0,5.5-2.4,12.6,12.6,0,0,0,0-13.6,7.5,7.5,0,0,0-11,0,12.6,12.6,0,0,0,0,13.6A6.7,6.7,0,0,0,248.9,790.2Z" fill="#f16022"/><path d="M285.9,768.4v25.3H282v-4.2H282q-2.4,4.4-8.3,4.4a8.7,8.7,0,0,1-6.6-2.5,9.4,9.4,0,0,1-2.4-6.8V768.4h4.1v15.5a6.6,6.6,0,0,0,1.6,4.7,6,6,0,0,0,4.6,1.6,6.6,6.6,0,0,0,5-2,7.2,7.2,0,0,0,1.9-5.2V768.4Z" fill="#f16022"/><path d="M303.6,768.1a9.8,9.8,0,0,1,7.8,3.6,16,16,0,0,1,0,18.6,9.6,9.6,0,0,1-7.8,3.6,9.9,9.9,0,0,1-4.8-1.1,8.2,8.2,0,0,1-3.3-3.2h-.1v12.5h-4.1V768.4h3.9v4.1h.1a8,8,0,0,1,3.3-3.2A10.2,10.2,0,0,1,303.6,768.1Zm-.7,22.1a6.6,6.6,0,0,0,5.4-2.5,12.1,12.1,0,0,0,0-13.4,6.5,6.5,0,0,0-5.4-2.5,6.5,6.5,0,0,0-5.3,2.6,12,12,0,0,0,0,13.4A6.5,6.5,0,0,0,302.8,790.2Z" fill="#f16022"/><path d="M213,915.7h4.2a6,6,0,0,0,2.7,4.4,10.2,10.2,0,0,0,6,1.7,9.4,9.4,0,0,0,5.7-1.6,4.9,4.9,0,0,0,2.2-4.1,4.5,4.5,0,0,0-1.6-3.5,12.2,12.2,0,0,0-5-2.3l-4.3-1.1a14.8,14.8,0,0,1-6.8-3.3,7.5,7.5,0,0,1-2.2-5.6,8.4,8.4,0,0,1,3.3-6.9,13.4,13.4,0,0,1,8.6-2.7,12.7,12.7,0,0,1,8.3,2.7,9,9,0,0,1,3.4,6.9h-4.2a5.9,5.9,0,0,0-2.3-4.3,8.6,8.6,0,0,0-5.4-1.6,8.7,8.7,0,0,0-5.4,1.5,4.8,4.8,0,0,0-2.1,4,3.9,3.9,0,0,0,1.5,3.2,13.4,13.4,0,0,0,5,2.1l3.5.9q5.3,1.3,7.5,3.5a7.6,7.6,0,0,1,2.3,5.8,8.9,8.9,0,0,1-3.4,7.3q-3.4,2.7-9.2,2.7a13.8,13.8,0,0,1-8.8-2.7A9.6,9.6,0,0,1,213,915.7Z" fill="#010101"/><path d="M250,925.3a9.1,9.1,0,0,1-6.2-2,6.8,6.8,0,0,1-2.3-5.4,6.1,6.1,0,0,1,2.4-5.1,12.7,12.7,0,0,1,7-2.1l7.1-.4V908a4.5,4.5,0,0,0-1.5-3.6,6.5,6.5,0,0,0-4.3-1.3,6.3,6.3,0,0,0-3.7,1.1,4.5,4.5,0,0,0-1.9,2.8h-3.9a6.9,6.9,0,0,1,2.8-5.4,10.5,10.5,0,0,1,6.7-2.2,10.8,10.8,0,0,1,7.1,2.2,7.3,7.3,0,0,1,2.7,5.9V925h-3.9v-4.4h-.1a8,8,0,0,1-3.3,3.4A9.6,9.6,0,0,1,250,925.3Zm.9-3.5a7.4,7.4,0,0,0,5.1-1.8,5.8,5.8,0,0,0,2-4.5v-2l-6.6.4q-5.8.4-5.8,4.1a3.3,3.3,0,0,0,1.4,2.8A6.2,6.2,0,0,0,250.8,921.7Z" fill="#010101"/><path d="M267.7,925V889.7h4.1V925Z" fill="#010101"/><path d="M284.9,925.3a9.1,9.1,0,0,1-6.2-2,6.8,6.8,0,0,1-2.3-5.4,6.1,6.1,0,0,1,2.4-5.1,12.7,12.7,0,0,1,7-2.1l7.1-.4V908a4.5,4.5,0,0,0-1.5-3.6,6.5,6.5,0,0,0-4.3-1.3,6.3,6.3,0,0,0-3.7,1.1,4.5,4.5,0,0,0-1.9,2.8h-3.9a6.9,6.9,0,0,1,2.8-5.4,10.5,10.5,0,0,1,6.7-2.2,10.8,10.8,0,0,1,7.1,2.2,7.3,7.3,0,0,1,2.7,5.9V925h-3.9v-4.4h-.1a8,8,0,0,1-3.3,3.4A9.6,9.6,0,0,1,284.9,925.3Zm.9-3.5a7.4,7.4,0,0,0,5.1-1.8,5.8,5.8,0,0,0,2-4.5v-2l-6.6.4q-5.8.4-5.8,4.1a3.3,3.3,0,0,0,1.4,2.8A6.2,6.2,0,0,0,285.8,921.7Z" fill="#010101"/><path d="M312,925.3a9.8,9.8,0,0,1-7.8-3.6,15.9,15.9,0,0,1,0-18.6,9.6,9.6,0,0,1,7.7-3.6,10,10,0,0,1,4.8,1.1,8,8,0,0,1,3.3,3.2h.1V889.7h4.1V925h-3.9v-4.3h-.1a8.6,8.6,0,0,1-3.3,3.3A9.8,9.8,0,0,1,312,925.3Zm.7-22.1a6.5,6.5,0,0,0-5.4,2.5,12.1,12.1,0,0,0,0,13.4,6.9,6.9,0,0,0,10.7,0,12,12,0,0,0,0-13.4A6.5,6.5,0,0,0,312.7,903.2Z" fill="#010101"/><path d="M204,1044.6h4.2a6,6,0,0,0,2.7,4.4,10.2,10.2,0,0,0,6,1.7,9.4,9.4,0,0,0,5.7-1.6,4.9,4.9,0,0,0,2.2-4.1,4.5,4.5,0,0,0-1.6-3.5,12.2,12.2,0,0,0-5-2.3l-4.3-1.1a14.8,14.8,0,0,1-6.8-3.3,7.5,7.5,0,0,1-2.2-5.6,8.4,8.4,0,0,1,3.3-6.9,13.4,13.4,0,0,1,8.6-2.7,12.7,12.7,0,0,1,8.3,2.7,9,9,0,0,1,3.4,6.9h-4.2a5.9,5.9,0,0,0-2.3-4.3,8.6,8.6,0,0,0-5.4-1.6,8.7,8.7,0,0,0-5.4,1.5,4.8,4.8,0,0,0-2.1,4,3.9,3.9,0,0,0,1.5,3.2,13.4,13.4,0,0,0,5,2.1l3.5.9q5.3,1.3,7.5,3.5a7.6,7.6,0,0,1,2.3,5.8,8.9,8.9,0,0,1-3.4,7.3q-3.4,2.7-9.2,2.7a13.8,13.8,0,0,1-8.8-2.7A9.6,9.6,0,0,1,204,1044.6Z" fill="#010101"/><path d="M250.3,1046.7h4a7.9,7.9,0,0,1-3.5,5.4,11.8,11.8,0,0,1-7,2.1,10.8,10.8,0,0,1-8.4-3.4q-3.1-3.4-3.1-9.3t3.1-9.4a10.5,10.5,0,0,1,8.3-3.5,10.2,10.2,0,0,1,8,3.3q3,3.3,3,9.1v1.6H236.5v.2a8,8,0,0,0,2,5.8,7.1,7.1,0,0,0,5.4,2.2,7.7,7.7,0,0,0,4.1-1A4.9,4.9,0,0,0,250.3,1046.7Zm-6.7-14.7a6.7,6.7,0,0,0-4.9,2,7.8,7.8,0,0,0-2.2,5.2h13.9a7.5,7.5,0,0,0-1.9-5.2A6.4,6.4,0,0,0,243.6,1032Z" fill="#010101"/><path d="M266.4,1054.2a9.1,9.1,0,0,1-6.2-2,6.8,6.8,0,0,1-2.3-5.4,6.1,6.1,0,0,1,2.4-5.1,12.7,12.7,0,0,1,7-2.1l7.1-.4v-2.1a4.5,4.5,0,0,0-1.5-3.6,6.5,6.5,0,0,0-4.3-1.3,6.3,6.3,0,0,0-3.7,1.1,4.5,4.5,0,0,0-1.9,2.8h-3.9a6.9,6.9,0,0,1,2.8-5.4,10.5,10.5,0,0,1,6.7-2.2,10.8,10.8,0,0,1,7.1,2.2,7.3,7.3,0,0,1,2.7,5.9v17.3h-3.9v-4.4h-.1a8,8,0,0,1-3.3,3.4A9.6,9.6,0,0,1,266.4,1054.2Zm.9-3.5a7.4,7.4,0,0,0,5.1-1.8,5.8,5.8,0,0,0,2-4.5v-2l-6.6.4q-5.8.4-5.8,4.1a3.3,3.3,0,0,0,1.4,2.8A6.2,6.2,0,0,0,267.2,1050.6Z" fill="#010101"/><path d="M285.2,1053.9V1032h-3.5v-3.4h3.5v-2.3q0-3.5,1.6-5.1t5.1-1.6l2.3.2v3.4l-1.9-.2a2.9,2.9,0,0,0-2.3.8,3.9,3.9,0,0,0-.7,2.6v2.3h4.9v3.4h-4.9v21.9Z" fill="#010101"/><path d="M316.3,1050.7a12.1,12.1,0,0,1-17,0q-3.2-3.5-3.2-9.4t3.2-9.4a12.1,12.1,0,0,1,17,0q3.2,3.5,3.2,9.4T316.3,1050.7Zm-8.5-.1a6.7,6.7,0,0,0,5.5-2.4,12.6,12.6,0,0,0,0-13.6,7.5,7.5,0,0,0-11,0,12.6,12.6,0,0,0,0,13.6A6.7,6.7,0,0,0,307.8,1050.5Z" fill="#010101"/><path d="M342.7,1050.7a12.1,12.1,0,0,1-17,0q-3.2-3.5-3.2-9.4t3.2-9.4a12.1,12.1,0,0,1,17,0q3.2,3.5,3.2,9.4T342.7,1050.7Zm-8.5-.1a6.7,6.7,0,0,0,5.5-2.4,12.6,12.6,0,0,0,0-13.6,7.5,7.5,0,0,0-11,0,12.6,12.6,0,0,0,0,13.6A6.7,6.7,0,0,0,334.2,1050.5Z" fill="#010101"/><path d="M359.7,1054.2a9.8,9.8,0,0,1-7.8-3.6,15.9,15.9,0,0,1,0-18.6,9.6,9.6,0,0,1,7.7-3.6,10,10,0,0,1,4.8,1.1,8,8,0,0,1,3.3,3.2h.1v-14.1h4.1v35.3H368v-4.3h-.1a8.6,8.6,0,0,1-3.3,3.3A9.8,9.8,0,0,1,359.7,1054.2Zm.7-22.1a6.5,6.5,0,0,0-5.4,2.5,12.1,12.1,0,0,0,0,13.4,6.9,6.9,0,0,0,10.7,0,12,12,0,0,0,0-13.4A6.5,6.5,0,0,0,360.4,1032.1Z" fill="#010101"/><path d="M207.9,632.5h12.8a10.9,10.9,0,1,1,0,21.8h-8.5v12.1h-4.2Zm4.2,3.8v14.3h7.5a7.8,7.8,0,0,0,5.6-1.9,7.9,7.9,0,0,0,0-10.5,7.9,7.9,0,0,0-5.6-1.9Z" fill="#010101"/><path d="M241.1,666.6a9.1,9.1,0,0,1-6.2-2,6.8,6.8,0,0,1-2.3-5.4A6.1,6.1,0,0,1,235,654a12.7,12.7,0,0,1,7-2.1l7.1-.4v-2.1a4.5,4.5,0,0,0-1.5-3.6,6.5,6.5,0,0,0-4.3-1.3,6.3,6.3,0,0,0-3.7,1.1,4.5,4.5,0,0,0-1.9,2.8h-3.9a6.9,6.9,0,0,1,2.8-5.4,10.5,10.5,0,0,1,6.7-2.2,10.8,10.8,0,0,1,7.1,2.2,7.3,7.3,0,0,1,2.7,5.9v17.3h-3.9V662h-.1a8,8,0,0,1-3.3,3.4A9.6,9.6,0,0,1,241.1,666.6Zm.9-3.5a7.4,7.4,0,0,0,5.1-1.8,5.8,5.8,0,0,0,2-4.5v-2l-6.6.4q-5.8.4-5.8,4.1a3.3,3.3,0,0,0,1.4,2.8A6.2,6.2,0,0,0,242,663Z" fill="#010101"/><path d="M258.2,648.1a6.3,6.3,0,0,1,2.6-5.2,10.6,10.6,0,0,1,6.7-2,10.1,10.1,0,0,1,6.5,2.1,6.7,6.7,0,0,1,2.7,5.2h-3.9a3.8,3.8,0,0,0-1.6-2.8,7.5,7.5,0,0,0-7.5,0,3.1,3.1,0,0,0-1.4,2.7q0,2.5,4.3,3.6l3.8,1a12,12,0,0,1,5.4,2.5,5.7,5.7,0,0,1,1.6,4.3,6.3,6.3,0,0,1-2.8,5.3,11.8,11.8,0,0,1-7.2,2.1,11,11,0,0,1-6.8-2,7.2,7.2,0,0,1-3-5.3h4.1a4.1,4.1,0,0,0,1.8,2.9,8.9,8.9,0,0,0,8.2,0,3.1,3.1,0,0,0,1.5-2.7,2.7,2.7,0,0,0-.9-2.1,7.7,7.7,0,0,0-3-1.3l-4.4-1.1Q258.2,653.2,258.2,648.1Z" fill="#010101"/><path d="M283,635.4h4.1v5.7H292v3.4h-4.9v15.2a3.7,3.7,0,0,0,.8,2.6,3.1,3.1,0,0,0,2.4.8H292v3.4l-2.6.2q-3.4,0-4.9-1.6t-1.5-5.2V644.4h-3.5v-3.4H283Z" fill="#010101"/><path d="M303.7,666.6a9.1,9.1,0,0,1-6.2-2,6.8,6.8,0,0,1-2.3-5.4,6.1,6.1,0,0,1,2.4-5.1,12.7,12.7,0,0,1,7-2.1l7.1-.4v-2.1a4.5,4.5,0,0,0-1.5-3.6,6.5,6.5,0,0,0-4.3-1.3,6.3,6.3,0,0,0-3.7,1.1,4.5,4.5,0,0,0-1.9,2.8h-3.9a6.9,6.9,0,0,1,2.8-5.4,10.5,10.5,0,0,1,6.7-2.2,10.8,10.8,0,0,1,7.1,2.2,7.3,7.3,0,0,1,2.7,5.9v17.3h-3.9V662h-.1a8,8,0,0,1-3.3,3.4A9.6,9.6,0,0,1,303.7,666.6Zm.9-3.5a7.4,7.4,0,0,0,5.1-1.8,5.8,5.8,0,0,0,2-4.5v-2l-6.6.4q-5.8.4-5.8,4.1a3.3,3.3,0,0,0,1.4,2.8A6.2,6.2,0,0,0,304.6,663Z" fill="#010101"/><path d="M203.3,416.4H190.1V382.6h13.2a10.4,10.4,0,0,1,7,2.3A7.7,7.7,0,0,1,213,391a7.5,7.5,0,0,1-1.7,4.8,6.7,6.7,0,0,1-4.1,2.6v.2a8.7,8.7,0,0,1,5.5,2.7,8,8,0,0,1,2.1,5.6,8.6,8.6,0,0,1-3,7Q208.7,416.4,203.3,416.4Zm-9-30.1v10.9h6.8a9.6,9.6,0,0,0,5.7-1.5,4.9,4.9,0,0,0,2-4.2,4.7,4.7,0,0,0-1.7-3.9,7.3,7.3,0,0,0-4.7-1.3Zm0,26.4h8.3a9.3,9.3,0,0,0,5.8-1.5,5.3,5.3,0,0,0,2-4.5q0-5.9-8.2-5.9h-7.9Z" fill="#010101"/><path d="M219,416.4V391.1h3.8v4.1h.1a5.6,5.6,0,0,1,2.2-3.2,6.6,6.6,0,0,1,3.9-1.2l1.6.2v4a5.8,5.8,0,0,0-2.1-.3,5.1,5.1,0,0,0-3.9,1.6,6.2,6.2,0,0,0-1.5,4.3v15.6Z" fill="#010101"/><path d="M249.8,409.2h4a7.9,7.9,0,0,1-3.5,5.4,11.8,11.8,0,0,1-7,2.1,10.8,10.8,0,0,1-8.4-3.4q-3.1-3.4-3.1-9.3t3.1-9.4a10.5,10.5,0,0,1,8.3-3.5,10.2,10.2,0,0,1,8,3.3q3,3.3,3,9.1v1.6H236v.2a8,8,0,0,0,2,5.8,7.1,7.1,0,0,0,5.4,2.2,7.7,7.7,0,0,0,4.1-1A4.9,4.9,0,0,0,249.8,409.2Zm-6.7-14.7a6.7,6.7,0,0,0-4.9,2,7.8,7.8,0,0,0-2.2,5.2h13.9a7.5,7.5,0,0,0-1.9-5.2A6.4,6.4,0,0,0,243.1,394.5Z" fill="#010101"/><path d="M265.8,416.6a9.1,9.1,0,0,1-6.2-2,6.8,6.8,0,0,1-2.3-5.4,6.1,6.1,0,0,1,2.4-5.1,12.7,12.7,0,0,1,7-2.1l7.1-.4v-2.1a4.5,4.5,0,0,0-1.5-3.6,6.5,6.5,0,0,0-4.3-1.3,6.3,6.3,0,0,0-3.7,1.1,4.5,4.5,0,0,0-1.9,2.8h-3.9a6.9,6.9,0,0,1,2.8-5.4,10.5,10.5,0,0,1,6.7-2.2,10.8,10.8,0,0,1,7.1,2.2,7.3,7.3,0,0,1,2.7,5.9v17.3h-3.9V412H274a8,8,0,0,1-3.3,3.4A9.6,9.6,0,0,1,265.8,416.6Zm.9-3.5a7.4,7.4,0,0,0,5.1-1.8,5.8,5.8,0,0,0,2-4.5v-2l-6.6.4q-5.8.4-5.8,4.1a3.3,3.3,0,0,0,1.4,2.8A6.2,6.2,0,0,0,266.7,413.1Z" fill="#010101"/><path d="M292.9,416.6a9.8,9.8,0,0,1-7.8-3.6,15.9,15.9,0,0,1,0-18.6,9.6,9.6,0,0,1,7.7-3.6,10,10,0,0,1,4.8,1.1,8,8,0,0,1,3.3,3.2h.1V381.1h4.1v35.3h-3.9v-4.3h-.1a8.6,8.6,0,0,1-3.3,3.3A9.8,9.8,0,0,1,292.9,416.6Zm.7-22.1a6.5,6.5,0,0,0-5.4,2.5,12.1,12.1,0,0,0,0,13.4,6.9,6.9,0,0,0,10.7,0,12,12,0,0,0,0-13.4A6.5,6.5,0,0,0,293.7,394.5Z" fill="#010101"/><path d="M211.6,543.6a14,14,0,0,1-11.1-4.7q-4.1-4.7-4.1-12.8t4.1-12.7a14,14,0,0,1,11.1-4.7,14.6,14.6,0,0,1,9.4,3.1,12.5,12.5,0,0,1,4.7,8.1h-4.3a9.2,9.2,0,0,0-3.5-5.3,10.2,10.2,0,0,0-6.3-2,9.7,9.7,0,0,0-7.9,3.7q-3,3.7-3,9.9t3,9.9a9.7,9.7,0,0,0,8,3.7,11,11,0,0,0,6.3-1.7,8.5,8.5,0,0,0,3.5-4.8h4.3a12.8,12.8,0,0,1-4.8,7.7A15.1,15.1,0,0,1,211.6,543.6Z" fill="#010101"/><path d="M237.5,543.3a9.1,9.1,0,0,1-6.2-2,6.8,6.8,0,0,1-2.3-5.4,6.1,6.1,0,0,1,2.4-5.1,12.7,12.7,0,0,1,7-2.1l7.1-.4V526a4.5,4.5,0,0,0-1.5-3.6,6.5,6.5,0,0,0-4.3-1.3,6.3,6.3,0,0,0-3.7,1.1,4.5,4.5,0,0,0-1.9,2.8h-3.9a6.9,6.9,0,0,1,2.8-5.4,10.5,10.5,0,0,1,6.7-2.2,10.8,10.8,0,0,1,7.1,2.2,7.3,7.3,0,0,1,2.7,5.9V543h-3.9v-4.4h-.1a8,8,0,0,1-3.3,3.4A9.6,9.6,0,0,1,237.5,543.3Zm.9-3.5a7.4,7.4,0,0,0,5.1-1.8,5.8,5.8,0,0,0,2-4.5v-2l-6.6.4q-5.8.4-5.8,4.1a3.3,3.3,0,0,0,1.4,2.8A6.2,6.2,0,0,0,238.3,539.7Z" fill="#010101"/><path d="M259.3,529.1l11.3-11.3h5l-11,10.9L275.9,543h-4.7l-9.5-11.8-2.4,2.3V543h-4.1V507.7h4.1Z" fill="#010101"/><path d="M294.6,535.8h4a7.9,7.9,0,0,1-3.5,5.4,11.8,11.8,0,0,1-7,2.1,10.8,10.8,0,0,1-8.4-3.4q-3.1-3.4-3.1-9.3t3.1-9.4a10.5,10.5,0,0,1,8.3-3.5,10.2,10.2,0,0,1,8,3.3q3,3.3,3,9.1v1.6H280.8v.2a8,8,0,0,0,2,5.8,7.1,7.1,0,0,0,5.4,2.2,7.7,7.7,0,0,0,4.1-1A4.9,4.9,0,0,0,294.6,535.8Zm-6.7-14.7a6.7,6.7,0,0,0-4.9,2,7.8,7.8,0,0,0-2.2,5.2h13.9a7.5,7.5,0,0,0-1.9-5.2A6.4,6.4,0,0,0,287.9,521.1Z" fill="#010101"/><rect x="37.5" y="328.8" width="640" height="128" fill="none" stroke="#f16022" stroke-miterlimit="10"/><rect x="37.5" y="588.1" width="640" height="128" fill="none" stroke="#f16022" stroke-miterlimit="10"/><rect x="37.5" y="715.7" width="640" height="128" fill="none" stroke="#f16022" stroke-miterlimit="10"/><rect x="37.5" y="843.4" width="640" height="128" fill="none" stroke="#f16022" stroke-miterlimit="10"/><rect x="37.5" y="971" width="640" height="128" fill="none" stroke="#f16022" stroke-miterlimit="10"/><rect x="37.5" y="1098.7" width="640" height="128" fill="none" stroke="#f16022" stroke-miterlimit="10"/><circle cx="609.4" cy="294.8" r="22" fill="#fff"/><polygon points="620.4 293.8 610.4 293.8 610.4 283.8 608.4 283.8 608.4 293.8 598.4 293.8 598.4 295.8 608.4 295.8 608.4 305.8 610.4 305.8 610.4 295.8 620.4 295.8 620.4 293.8" fill="#f16022"/><path d="M270.7,301.3a10.2,10.2,0,0,1-8-3.3q-3-3.3-3-9t3-9a10.2,10.2,0,0,1,8-3.3,10.5,10.5,0,0,1,6.9,2.3,8.9,8.9,0,0,1,3.3,6h-3.7a6.2,6.2,0,0,0-2.3-3.7,6.6,6.6,0,0,0-4.2-1.4,6.3,6.3,0,0,0-5.2,2.5,12.3,12.3,0,0,0,0,13.3,6.3,6.3,0,0,0,5.2,2.5,7,7,0,0,0,4.2-1.2,5.8,5.8,0,0,0,2.3-3.4h3.7a9.1,9.1,0,0,1-3.4,5.8A10.8,10.8,0,0,1,270.7,301.3Z" fill="#fff"/><path d="M289.1,301a6.5,6.5,0,0,1-4.4-1.5,4.9,4.9,0,0,1-1.7-3.9,4.4,4.4,0,0,1,1.8-3.7,9.4,9.4,0,0,1,5.1-1.6l4.9-.3v-1.4a2.9,2.9,0,0,0-1-2.4,4.3,4.3,0,0,0-2.8-.8,4.2,4.2,0,0,0-2.5.7,2.9,2.9,0,0,0-1.2,1.9h-3.4a5.1,5.1,0,0,1,2.1-4,8,8,0,0,1,5.1-1.6,8.1,8.1,0,0,1,5.3,1.6,5.3,5.3,0,0,1,2,4.3v12.4h-3.4v-3h-.1a5.5,5.5,0,0,1-2.3,2.3A6.9,6.9,0,0,1,289.1,301Zm1-2.9a5,5,0,0,0,3.4-1.2,3.7,3.7,0,0,0,1.3-2.9v-1.4l-4.4.3q-3.7.2-3.7,2.7a2.2,2.2,0,0,0,.9,1.9A4.1,4.1,0,0,0,290.1,298.2Z" fill="#fff"/><path d="M303,278.8h3.6v4.1h3.5v2.8h-3.5v10.1a2.4,2.4,0,0,0,.5,1.7,2.2,2.2,0,0,0,1.7.6H310v2.8l-2,.2a5.4,5.4,0,0,1-3.9-1.1,5.1,5.1,0,0,1-1.1-3.7V285.7h-2.5v-2.8H303Z" fill="#fff"/><path d="M324.7,295.6h3.4a5.8,5.8,0,0,1-2.5,4,8.7,8.7,0,0,1-5.2,1.5,8,8,0,0,1-6.2-2.5,9.5,9.5,0,0,1-2.3-6.7,9.8,9.8,0,0,1,2.3-6.8,7.7,7.7,0,0,1,6.1-2.5,7.6,7.6,0,0,1,5.9,2.4,9.3,9.3,0,0,1,2.2,6.5v1.3H315.5v.2a5.2,5.2,0,0,0,1.3,3.8,4.7,4.7,0,0,0,3.6,1.4,5.1,5.1,0,0,0,2.7-.7A3.3,3.3,0,0,0,324.7,295.6Zm-4.5-10a4.4,4.4,0,0,0-3.2,1.3,5.1,5.1,0,0,0-1.4,3.4h9.1a4.9,4.9,0,0,0-1.3-3.4A4.2,4.2,0,0,0,320.2,285.5Z" fill="#fff"/><path d="M338.8,307.4a9.6,9.6,0,0,1-5.4-1.4,5,5,0,0,1-2.4-3.7h3.6a2.7,2.7,0,0,0,1.5,1.7,6,6,0,0,0,2.8.6,5.2,5.2,0,0,0,3.4-1,3.4,3.4,0,0,0,1.3-2.8v-3h-.1a5.5,5.5,0,0,1-2.3,2.3,7.1,7.1,0,0,1-3.4.8,6.8,6.8,0,0,1-5.5-2.5,9.9,9.9,0,0,1-2.1-6.6,10.1,10.1,0,0,1,2.1-6.6,6.8,6.8,0,0,1,5.5-2.5,6.9,6.9,0,0,1,3.4.8,5.9,5.9,0,0,1,2.3,2.3h.1v-3h3.5v17.6a6.2,6.2,0,0,1-2.3,5.1A9.4,9.4,0,0,1,338.8,307.4Zm0-9.5a4.3,4.3,0,0,0,3.5-1.7,6.7,6.7,0,0,0,1.3-4.4,6.9,6.9,0,0,0-1.3-4.4,4.3,4.3,0,0,0-3.5-1.7,4.2,4.2,0,0,0-3.5,1.7,7,7,0,0,0-1.3,4.4,6.8,6.8,0,0,0,1.3,4.4A4.2,4.2,0,0,0,338.8,297.8Z" fill="#fff"/><path d="M364.9,298.6a9,9,0,0,1-12.4,0,11,11,0,0,1,0-13.5,9,9,0,0,1,12.4,0,11,11,0,0,1,0,13.5Zm-9.8-2.1a4.7,4.7,0,0,0,7.2,0,8.9,8.9,0,0,0,0-9.2,4.7,4.7,0,0,0-7.2,0,8.8,8.8,0,0,0,0,9.2Z" fill="#fff"/><path d="M370.1,300.9v-18h3.4v3h.1a4.2,4.2,0,0,1,1.6-2.4,4.6,4.6,0,0,1,2.8-.9h1.2v3.4l-1.6-.2a3.6,3.6,0,0,0-2.8,1.1,4.3,4.3,0,0,0-1,3v10.8Z" fill="#fff"/><path d="M384.9,279.7a2.1,2.1,0,0,1-3,0,2.1,2.1,0,0,1,0-2.9,2.2,2.2,0,0,1,3,0,2.1,2.1,0,0,1,0,2.9Zm-3.3,21.2v-18h3.6v18Z" fill="#fff"/><path d="M401,295.6h3.4a5.8,5.8,0,0,1-2.5,4,8.7,8.7,0,0,1-5.2,1.5,8,8,0,0,1-6.2-2.5,9.5,9.5,0,0,1-2.3-6.7,9.8,9.8,0,0,1,2.3-6.8,7.7,7.7,0,0,1,6.1-2.5,7.6,7.6,0,0,1,5.9,2.4,9.3,9.3,0,0,1,2.2,6.5v1.3H391.9v.2a5.2,5.2,0,0,0,1.3,3.8,4.7,4.7,0,0,0,3.6,1.4,5.1,5.1,0,0,0,2.7-.7A3.3,3.3,0,0,0,401,295.6Zm-4.5-10a4.4,4.4,0,0,0-3.2,1.3,5.1,5.1,0,0,0-1.4,3.4H401a4.9,4.9,0,0,0-1.3-3.4A4.2,4.2,0,0,0,396.6,285.5Z" fill="#fff"/><path d="M407.2,288a4.6,4.6,0,0,1,1.9-3.9,8.1,8.1,0,0,1,5-1.5,7.7,7.7,0,0,1,4.9,1.5,4.9,4.9,0,0,1,2,3.9h-3.4a2.5,2.5,0,0,0-1.1-1.9,4.9,4.9,0,0,0-5,0,2,2,0,0,0-.9,1.7q0,1.6,2.8,2.3l3,.7a8.4,8.4,0,0,1,3.9,1.8,4.1,4.1,0,0,1,1.1,3.1,4.7,4.7,0,0,1-2.1,3.9,8.8,8.8,0,0,1-5.3,1.5,8.4,8.4,0,0,1-5.1-1.5,5.2,5.2,0,0,1-2.2-3.9h3.6a2.8,2.8,0,0,0,1.2,2,5.8,5.8,0,0,0,5.4,0,2,2,0,0,0,1-1.7,1.7,1.7,0,0,0-.6-1.4,5.2,5.2,0,0,0-2-.9l-3.2-.8Q407.2,291.7,407.2,288Z" fill="#fff"/><rect x="37.5" y="1251.1" width="640" height="88" fill="#f6f6f6" opacity="0.9"/><rect x="37.5" y="1248.2" width="640" height="1" fill="#010101" opacity="0.3"/><path d="M103,1321.1v5.1h-2.9v-13.9h5.7a5.4,5.4,0,0,1,3.7,1.2,4.1,4.1,0,0,1,1.3,3.2,4.4,4.4,0,0,1-.7,2.4,3.7,3.7,0,0,1-1.9,1.5l2.9,5.5H108l-2.6-5.1Zm0-6.5v4.4h2.6a2.4,2.4,0,0,0,1.7-.6,2.1,2.1,0,0,0,.6-1.6,2.1,2.1,0,0,0-.6-1.6,2.4,2.4,0,0,0-1.7-.6Z" fill="#f16022"/><path d="M119.5,1322.9h2.6a3.6,3.6,0,0,1-1.6,2.5,5.5,5.5,0,0,1-3.3.9,5,5,0,0,1-3.8-1.5,5.5,5.5,0,0,1-1.4-4,5.7,5.7,0,0,1,1.4-4,5.4,5.4,0,0,1,7.4-.1,5.3,5.3,0,0,1,1.4,3.8v.9h-7.3v.2a2.5,2.5,0,0,0,.7,1.8,2.4,2.4,0,0,0,1.8.7,2.6,2.6,0,0,0,1.4-.4A1.7,1.7,0,0,0,119.5,1322.9Zm-2.3-5.4a2.2,2.2,0,0,0-1.6.6,2.5,2.5,0,0,0-.7,1.7h4.6a2.4,2.4,0,0,0-.7-1.7A2.2,2.2,0,0,0,117.2,1317.5Z" fill="#f16022"/><path d="M133.3,1319.4h-2.6a2.2,2.2,0,0,0-.7-1.4,2.1,2.1,0,0,0-1.5-.5,2,2,0,0,0-1.7.9,4.8,4.8,0,0,0,0,4.8,2,2,0,0,0,1.7.9,2.2,2.2,0,0,0,1.5-.5,2.1,2.1,0,0,0,.7-1.3h2.6a4,4,0,0,1-1.4,2.9,5.1,5.1,0,0,1-3.4,1.1,5,5,0,0,1-3.8-1.5,6.4,6.4,0,0,1,0-8,5.6,5.6,0,0,1,7.2-.3A4.1,4.1,0,0,1,133.3,1319.4Z" fill="#f16022"/><path d="M136.1,1314.4a1.5,1.5,0,0,1-1.1-.4,1.4,1.4,0,0,1-.4-1,1.4,1.4,0,0,1,.4-1,1.6,1.6,0,0,1,2.1,0,1.4,1.4,0,0,1,.4,1,1.4,1.4,0,0,1-.4,1A1.5,1.5,0,0,1,136.1,1314.4Zm-1.4,11.7v-10.6h2.8v10.6Z" fill="#f16022"/><path d="M145.6,1315.4a3.9,3.9,0,0,1,3.2,1.4,7.3,7.3,0,0,1,0,7.9,3.8,3.8,0,0,1-3.2,1.5,3.9,3.9,0,0,1-2-.5,3.2,3.2,0,0,1-1.3-1.4h-.1v5.1h-2.8v-13.9h2.8v1.8h.1a3.2,3.2,0,0,1,1.3-1.4A3.8,3.8,0,0,1,145.6,1315.4Zm-.9,8.6a2.1,2.1,0,0,0,1.8-.9,4.3,4.3,0,0,0,0-4.6,2.1,2.1,0,0,0-1.7-.9,2.1,2.1,0,0,0-1.7.9,4.3,4.3,0,0,0,0,4.6A2.1,2.1,0,0,0,144.7,1324Z" fill="#f16022"/><path d="M158.5,1322.9h2.6a3.6,3.6,0,0,1-1.6,2.5,5.5,5.5,0,0,1-3.3.9,5,5,0,0,1-3.8-1.5,5.5,5.5,0,0,1-1.4-4,5.7,5.7,0,0,1,1.4-4,5.4,5.4,0,0,1,7.4-.1,5.3,5.3,0,0,1,1.4,3.8v.9h-7.3v.2a2.5,2.5,0,0,0,.7,1.8,2.4,2.4,0,0,0,1.8.7,2.6,2.6,0,0,0,1.4-.4A1.7,1.7,0,0,0,158.5,1322.9Zm-2.3-5.4a2.2,2.2,0,0,0-1.6.6,2.5,2.5,0,0,0-.7,1.7h4.6a2.4,2.4,0,0,0-.7-1.7A2.2,2.2,0,0,0,156.2,1317.5Z" fill="#f16022"/><path d="M162.5,1318.7a2.8,2.8,0,0,1,1.2-2.4,5.3,5.3,0,0,1,3.2-.9,5.1,5.1,0,0,1,3.2.9,3,3,0,0,1,1.2,2.4h-2.6a1.3,1.3,0,0,0-.5-1,2.1,2.1,0,0,0-1.3-.4,2.2,2.2,0,0,0-1.2.3,1,1,0,0,0-.5.8q0,.8,1.4,1.1l2,.4a4.9,4.9,0,0,1,2.3,1,2.4,2.4,0,0,1,.7,1.8,2.9,2.9,0,0,1-1.3,2.5,5.6,5.6,0,0,1-3.4.9,5.5,5.5,0,0,1-3.3-.9,3.2,3.2,0,0,1-1.4-2.5H165a1.5,1.5,0,0,0,.6,1,2.4,2.4,0,0,0,1.4.4,2.5,2.5,0,0,0,1.3-.3.9.9,0,0,0,.5-.8.8.8,0,0,0-.3-.7l-1-.4-2-.4Q162.5,1321,162.5,1318.7Z" fill="#f16022"/><ellipse cx="130.6" cy="1285.4" rx="23.2" ry="23.3" transform="translate(-391.2 103.5) rotate(-18)" fill="#f16022"/><path d="M310.6,1321.4h1.3a2.7,2.7,0,0,0,1.2,2,4.5,4.5,0,0,0,2.7.8,4.2,4.2,0,0,0,2.6-.8,2.3,2.3,0,0,0,1-1.9,2,2,0,0,0-.7-1.6,5.6,5.6,0,0,0-2.3-1l-1.7-.4a6.3,6.3,0,0,1-2.8-1.3,2.9,2.9,0,0,1-.9-2.2,3.4,3.4,0,0,1,1.3-2.8,5.9,5.9,0,0,1,6.8,0,3.5,3.5,0,0,1,1.4,2.7h-1.3a2.5,2.5,0,0,0-1.1-1.9,4,4,0,0,0-2.4-.7,3.8,3.8,0,0,0-2.4.7,2.2,2.2,0,0,0-.9,1.9,1.8,1.8,0,0,0,.7,1.5,5.9,5.9,0,0,0,2.2,1l1.5.4a7,7,0,0,1,3,1.4,3,3,0,0,1,.9,2.3,3.6,3.6,0,0,1-1.4,2.9,6.5,6.5,0,0,1-7.3,0A3.8,3.8,0,0,1,310.6,1321.4Z" fill="#f16022"/><path d="M322.6,1325.1v-14.5h1.3v6.1h0a3.3,3.3,0,0,1,1.3-1.5,4.2,4.2,0,0,1,2.2-.5,3.6,3.6,0,0,1,3.8,3.8v6.6H330v-6.4a2.7,2.7,0,0,0-2.9-2.9,3,3,0,0,0-2.3.9,3.3,3.3,0,0,0-.9,2.4v6Z" fill="#f16022"/><path d="M337.7,1325.2a4.4,4.4,0,0,1-3.4-1.4,6.4,6.4,0,0,1,0-7.7,4.8,4.8,0,0,1,6.9,0,6.4,6.4,0,0,1,0,7.7A4.4,4.4,0,0,1,337.7,1325.2Zm0-1.1a3.1,3.1,0,0,0,2.5-1.1,5.5,5.5,0,0,0,0-6.1,3.4,3.4,0,0,0-5,0,5.5,5.5,0,0,0,0,6.1A3.1,3.1,0,0,0,337.7,1324.1Z" fill="#f16022"/><path d="M349,1314.7a4,4,0,0,1,3.2,1.5,6.6,6.6,0,0,1,0,7.6,3.9,3.9,0,0,1-3.2,1.5,3.9,3.9,0,0,1-2.2-.6,3.6,3.6,0,0,1-1.4-1.6h0v5.5h-1.3v-13.7h1.2v2.1h0a3.5,3.5,0,0,1,1.4-1.6A4,4,0,0,1,349,1314.7Zm-.2,9.4a3,3,0,0,0,2.4-1.1,5.4,5.4,0,0,0,0-6,3.1,3.1,0,0,0-4.8,0,5.3,5.3,0,0,0,0,6A3,3,0,0,0,348.8,1324.1Z" fill="#f16022"/><path d="M360,1314.7a4,4,0,0,1,3.2,1.5,6.6,6.6,0,0,1,0,7.6,3.9,3.9,0,0,1-3.2,1.5,3.9,3.9,0,0,1-2.2-.6,3.6,3.6,0,0,1-1.4-1.6h0v5.5h-1.3v-13.7h1.2v2.1h0a3.5,3.5,0,0,1,1.4-1.6A4,4,0,0,1,360,1314.7Zm-.2,9.4a3,3,0,0,0,2.4-1.1,5.4,5.4,0,0,0,0-6,3.1,3.1,0,0,0-4.8,0,5.3,5.3,0,0,0,0,6A3,3,0,0,0,359.8,1324.1Z" fill="#f16022"/><path d="M367.6,1312.5a.8.8,0,0,1-.6.3l-.6-.3a.8.8,0,0,1-.3-.6.8.8,0,0,1,.3-.6l.6-.3.6.3a.8.8,0,0,1,.3.6A.8.8,0,0,1,367.6,1312.5Zm-1.2,12.6v-10.3h1.3v10.3Z" fill="#f16022"/><path d="M370,1325.1v-10.3h1.2v1.9h0a3.3,3.3,0,0,1,1.3-1.5,4.1,4.1,0,0,1,2.1-.5,3.7,3.7,0,0,1,2.7,1,3.8,3.8,0,0,1,1,2.8v6.7h-1.3v-6.5a2.9,2.9,0,0,0-.8-2.1,2.8,2.8,0,0,0-2.1-.8,2.9,2.9,0,0,0-2.2.9,3.3,3.3,0,0,0-.9,2.3v6.1Z" fill="#f16022"/><path d="M384.9,1328.7a5.2,5.2,0,0,1-2.9-.7,2.8,2.8,0,0,1-1.3-1.9H382a1.8,1.8,0,0,0,1,1.1,4.1,4.1,0,0,0,1.9.4,3.6,3.6,0,0,0,2.3-.7,2.3,2.3,0,0,0,.9-1.9v-2.1h0a3.6,3.6,0,0,1-1.4,1.6,4.2,4.2,0,0,1-5.3-.8,6.6,6.6,0,0,1,0-7.6,4.2,4.2,0,0,1,5.4-.8,3.7,3.7,0,0,1,1.4,1.6h0v-2.1h1.2v10.2a3.4,3.4,0,0,1-1.2,2.8A5.1,5.1,0,0,1,384.9,1328.7Zm-.1-4.7a3,3,0,0,0,2.4-1.1,4.5,4.5,0,0,0,.9-3,4.6,4.6,0,0,0-.9-3,3,3,0,0,0-2.4-1.1,2.9,2.9,0,0,0-2.4,1.1,5.4,5.4,0,0,0,0,6A2.9,2.9,0,0,0,384.8,1324Z" fill="#f16022"/><path d="M404.5,1323.9v1.2h-8.3v-13.9h1.3v12.7Z" fill="#f16022"/><path d="M407.6,1312.5a.8.8,0,0,1-.6.3l-.6-.3a.8.8,0,0,1-.3-.6.8.8,0,0,1,.3-.6l.6-.3.6.3a.8.8,0,0,1,.3.6A.8.8,0,0,1,407.6,1312.5Zm-1.2,12.6v-10.3h1.3v10.3Z" fill="#f16022"/><path d="M409.8,1317.6a2.5,2.5,0,0,1,1.1-2.1,4.3,4.3,0,0,1,2.7-.8,4,4,0,0,1,2.6.8,2.9,2.9,0,0,1,1.1,2.2H416a2,2,0,0,0-.8-1.4,2.8,2.8,0,0,0-1.8-.5,2.9,2.9,0,0,0-1.7.5,1.5,1.5,0,0,0-.7,1.3,1.3,1.3,0,0,0,.5,1,3.7,3.7,0,0,0,1.5.6l1.6.4a5.1,5.1,0,0,1,2.2,1,2.3,2.3,0,0,1,.7,1.7,2.5,2.5,0,0,1-1.1,2.1,4.7,4.7,0,0,1-2.9.8,4.4,4.4,0,0,1-2.8-.8,2.9,2.9,0,0,1-1.2-2.2h1.3a2,2,0,0,0,.9,1.4,3.2,3.2,0,0,0,1.9.5,3.3,3.3,0,0,0,1.9-.5,1.5,1.5,0,0,0,.7-1.3,1.3,1.3,0,0,0-.4-1.1,3.6,3.6,0,0,0-1.5-.6l-1.8-.4a4.3,4.3,0,0,1-2-1A2.2,2.2,0,0,1,409.8,1317.6Z" fill="#f16022"/><path d="M419.8,1312.3h1.3v2.5h2.1v1.1h-2.1v6.7a1.7,1.7,0,0,0,.3,1.2,1.4,1.4,0,0,0,1.1.4h.7v1.1h-1a2.4,2.4,0,0,1-1.9-.6,2.9,2.9,0,0,1-.6-2v-6.7h-1.5v-1.1h1.5Z" fill="#f16022"/><path d="M592.1,1266.4c6.7,0,10,7.3,10,7.3a11.6,11.6,0,0,1,10.5-7.1h.4c6.1,0,10.2,5.3,9.1,11.5-.8,4.6-5.1,8.3-8.1,11.5a157.3,157.3,0,0,1-11.8,11.1c-3.4-3.3-6.8-6.4-10.1-9.8s-8-7.2-9.6-11.5c-2.2-5.9,3.1-12.7,9.1-13h.5m0-2h-.6a12.5,12.5,0,0,0-9.5,5.7,11,11,0,0,0-1.3,10c1.4,3.8,4.9,7.2,8,10.2l2,2c2.2,2.2,4.4,4.3,6.5,6.3l3.6,3.5,1.3,1.3,1.4-1.2a160,160,0,0,0,11.9-11.3l1.3-1.3c2.9-3,6.6-6.7,7.4-11.2a12.1,12.1,0,0,0-2.5-9.9,11,11,0,0,0-8.6-3.9h-.5a13.4,13.4,0,0,0-10.5,5.3c-1.9-2.4-5.2-5.4-10-5.4Z" fill="#f16022"/><path d="M565.4,1328.1h-1.3v-13.9h8.3v1.2h-6.9v5.2h6.4v1.2h-6.4Z" fill="#f16022"/><path d="M576.7,1328.2a3.7,3.7,0,0,1-2.5-.8,2.7,2.7,0,0,1-1-2.2,2.5,2.5,0,0,1,1-2.1,5.2,5.2,0,0,1,2.8-.9l3.2-.2v-.9a2.3,2.3,0,0,0-.7-1.8,2.8,2.8,0,0,0-1.9-.6,3,3,0,0,0-1.8.5,2.2,2.2,0,0,0-.9,1.4h-1.2a2.9,2.9,0,0,1,1.2-2.2,4.3,4.3,0,0,1,2.7-.9,4.2,4.2,0,0,1,2.8.9,3.1,3.1,0,0,1,1.1,2.5v7h-1.2v-2h0a3.4,3.4,0,0,1-1.4,1.5A4.2,4.2,0,0,1,576.7,1328.2Zm.3-1.1a3.4,3.4,0,0,0,2.3-.8,2.6,2.6,0,0,0,.9-2.1V1323l-3,.2a3.8,3.8,0,0,0-2,.6,1.6,1.6,0,0,0-.7,1.4,1.6,1.6,0,0,0,.7,1.4A2.8,2.8,0,0,0,577,1327.1Z" fill="#f16022"/><path d="M591.9,1317.7l-3.9,10.3h-1.3l-3.9-10.3h1.3l3.2,9h0l3.2-9Z" fill="#f16022"/><path d="M597.2,1328.2a4.4,4.4,0,0,1-3.4-1.4,6.4,6.4,0,0,1,0-7.7,4.8,4.8,0,0,1,6.9,0,6.4,6.4,0,0,1,0,7.7A4.4,4.4,0,0,1,597.2,1328.2Zm0-1.1a3.1,3.1,0,0,0,2.5-1.1,5.5,5.5,0,0,0,0-6.1,3.4,3.4,0,0,0-5,0,5.5,5.5,0,0,0,0,6.1A3.1,3.1,0,0,0,597.2,1327Z" fill="#f16022"/><path d="M603.7,1328.1v-10.3h1.2v1.8h0a2.6,2.6,0,0,1,1-1.4,2.7,2.7,0,0,1,1.7-.5h.8v1.3l-.9-.2a2.2,2.2,0,0,0-1.8.8,3.1,3.1,0,0,0-.7,2v6.4Z" fill="#f16022"/><path d="M611.1,1315.4l-.6.3-.6-.3a.8.8,0,0,1-.3-.6.8.8,0,0,1,.3-.6l.6-.3.6.3a.8.8,0,0,1,.3.6A.8.8,0,0,1,611.1,1315.4Zm-1.2,12.6v-10.3h1.3v10.3Z" fill="#f16022"/><path d="M614.1,1315.2h1.3v2.5h2.1v1.1h-2.1v6.7a1.7,1.7,0,0,0,.3,1.2,1.4,1.4,0,0,0,1.1.4h.7v1.1h-1a2.4,2.4,0,0,1-1.9-.6,2.9,2.9,0,0,1-.6-2v-6.7h-1.5v-1.1h1.5Z" fill="#f16022"/><path d="M626.1,1325.1h1.3a3.3,3.3,0,0,1-1.4,2.2,4.7,4.7,0,0,1-2.9.9,4.4,4.4,0,0,1-3.4-1.4,5.5,5.5,0,0,1-1.3-3.8,5.7,5.7,0,0,1,1.3-3.9,4.2,4.2,0,0,1,3.4-1.4,4.2,4.2,0,0,1,3.3,1.4,5.3,5.3,0,0,1,1.2,3.7v.6h-7.8a3.9,3.9,0,0,0,.9,2.8,3.2,3.2,0,0,0,2.5,1,3.5,3.5,0,0,0,1.9-.5A2.4,2.4,0,0,0,626.1,1325.1Zm-3.1-6.4a3,3,0,0,0-2.3.9,3.8,3.8,0,0,0-1,2.5h6.5a3.6,3.6,0,0,0-.9-2.5A3,3,0,0,0,623,1318.7Z" fill="#f16022"/><path d="M629.1,1320.5a2.5,2.5,0,0,1,1.1-2.1,4.3,4.3,0,0,1,2.7-.8,4,4,0,0,1,2.6.8,2.9,2.9,0,0,1,1.1,2.2h-1.2a2,2,0,0,0-.8-1.4,2.8,2.8,0,0,0-1.8-.5,2.9,2.9,0,0,0-1.7.5,1.5,1.5,0,0,0-.7,1.3,1.3,1.3,0,0,0,.5,1,3.7,3.7,0,0,0,1.5.6l1.6.4a5.1,5.1,0,0,1,2.2,1,2.3,2.3,0,0,1,.7,1.7,2.5,2.5,0,0,1-1.1,2.1,4.7,4.7,0,0,1-2.9.8,4.4,4.4,0,0,1-2.8-.9,2.9,2.9,0,0,1-1.2-2.2h1.3a2,2,0,0,0,.9,1.4,3.2,3.2,0,0,0,1.9.5,3.3,3.3,0,0,0,1.9-.5,1.5,1.5,0,0,0,.7-1.3,1.3,1.3,0,0,0-.4-1.1,3.6,3.6,0,0,0-1.5-.6l-1.8-.4a4.3,4.3,0,0,1-2-1A2.2,2.2,0,0,1,629.1,1320.5Z" fill="#f16022"/><path d="M368.4,1299.3a5.4,5.4,0,1,0,5.7,5.4A5.5,5.5,0,0,0,368.4,1299.3Zm0,8.4a3,3,0,1,1,3.1-2.9A3,3,0,0,1,368.4,1307.6Z" fill="#f16022"/><path d="M340.5,1299.3a5.4,5.4,0,1,0,5.7,5.4A5.5,5.5,0,0,0,340.5,1299.3Zm0,8.4a3,3,0,1,1,3.1-2.9A3,3,0,0,1,340.5,1307.6Z" fill="#f16022"/><rect x="345.1" y="1303.4" width="18.2" height="2.28" fill="#f16022"/><path d="M384.6,1263.8s-8.4,0-9.1,4.4l-44.6,2.8s-4.1.9-3.4,3.3,3.7,16.7,3.7,16.7.4,2.5,2.2,2.5h36.9l5.4-24.6a7.7,7.7,0,0,1,8.6-4.6Z" fill="none" stroke="#f16022" stroke-miterlimit="10" stroke-width="2"/><polygon points="368.9 1294 371.4 1294 370.4 1299.9 368 1299.7 368.9 1294" fill="#f16022"/><path d="M335.5,1277.7l28.7-1.9s1.9,1.1.3,2.5l-29.1,2S333.9,1278.8,335.5,1277.7Z" fill="#f16022"/><path d="M335.6,1285.1h28.8s1.8,1.2.2,2.5H335.4S333.9,1286.1,335.6,1285.1Z" fill="#f16022"/><path d="M165,921.3s7.1-15.8,14.6-15.5-12.6-1.7-12.6-1.7,9.2-14.9-6.6-7.9l-5-8.9-6.6,6.9s-10.6-11.6-9.6,5.9c0,0,4-20.8-12.2-12.9v-4s-6.3-10.9-15.5-3.6c0,0-2-5.3-4.6-.7s-10.2-6.3-11.2,12.2c0,0-8.9.7-9.8,9.6,0,0-12.7-12.2-12.7,5l-10.9-2.3s17.5,8.6,18.2,16C80.5,919.5,95.7,931.8,165,921.3Z" fill="#f16022"/><path d="M73.2,920.7s40.9,16.8,100.4-1.7C173.6,919.1,117.8,972.9,73.2,920.7Z" fill="none" stroke="#f16022" stroke-miterlimit="10"/><ellipse cx="132" cy="910.7" rx="12.7" ry="11.9" transform="translate(-756.6 671.5) rotate(-66.7)" fill="none" stroke="#fff" stroke-miterlimit="10"/><path d="M130.6,908.2s-8.5-9.6,3.3-7.7c0,0,11.2,3.5,4.5,6.5,0,0-3.3.4-5,2.4C133.4,909.4,132.4,906.9,130.6,908.2Z" fill="#fff"/><path d="M134.3,910.8s12.6-2.7,5.1,6.7c0,0-8.5,8.1-7.9.7,0,0,1.3-3,.3-5.5C131.8,912.7,134.5,912.9,134.3,910.8Z" fill="#fff"/><path d="M130.1,913.4s-5,11.8-8.4.3c0,0-1.7-11.6,4-6.8,0,0,1.7,2.8,4.3,3.4C130,910.3,128.2,912.4,130.1,913.4Z" fill="#fff"/><path d="M131.1,905.9s-1.9-1.3-1-2.5S131.6,904.2,131.1,905.9Z" fill="#f16022"/><path d="M135.1,906.6s.3-2.4,1.9-2.1S137,906.3,135.1,906.6Z" fill="#f16022"/><path d="M133.3,906.2s2.3-1.5,1.2-3S132.7,904.2,133.3,906.2Z" fill="#f16022"/><path d="M136.8,912.9s2.2-.5,2.5,1S137.7,914.5,136.8,912.9Z" fill="#f16022"/><path d="M133.5,915.3s1.5,1.9.2,2.8S132.4,916.9,133.5,915.3Z" fill="#f16022"/><path d="M135,914.3s-.5,2.7,1.3,2.9S136.9,915.3,135,914.3Z" fill="#f16022"/><path d="M127,914.3s-.4,2.2-1.9,1.9S125.2,914.5,127,914.3Z" fill="#f16022"/><path d="M126,910.3s-2.3.7-2.7-.9S125,908.8,126,910.3Z" fill="#f16022"/><path d="M126.4,912.2s-2.3-1.5-3.2.1S124.8,913.5,126.4,912.2Z" fill="#f16022"/><ellipse cx="106.9" cy="910.9" rx="10.6" ry="12.6" transform="translate(-385.7 137.3) rotate(-25.8)" fill="#fff"/><path d="M108.4,910.8s1.1-1.9,2.3-1.2S110.1,911.2,108.4,910.8Z" fill="#f15625"/><path d="M108.3,913.3s2.3.4,1.9,1.9S108.5,915.2,108.3,913.3Z" fill="#f15625"/><path d="M108.8,911.8s1.7,2.1,3,.9S110.7,911.1,108.8,911.8Z" fill="#f15625"/><path d="M107.5,913.6s.9,2-.5,2.6S106.1,914.7,107.5,913.6Z" fill="#f15625"/><path d="M106.2,913.2s-2.6.1-2.5,1.8S105.7,915.2,106.2,913.2Z" fill="#f15625"/><ellipse cx="107" cy="910.9" rx="9.5" ry="11.5" transform="translate(-385.7 137.3) rotate(-25.8)" fill="none" stroke="#f15625" stroke-miterlimit="10" stroke-width="0.5"/><path d="M105.5,911.2s-2.2.2-2.3-1.2S104.8,909.6,105.5,911.2Z" fill="#f15625"/><path d="M106.5,910.5s.7-2.5-1-2.9S104.7,909.4,106.5,910.5Z" fill="#f15625"/><path d="M107.9,910.3s-1.3-1.9.1-2.7S109.1,908.9,107.9,910.3Z" fill="#f15625"/><path d="M105.4,912.3s-1.4,1.8-2.6.8S103.7,911.6,105.4,912.3Z" fill="#f15625"/><rect x="56.5" y="236.5" width="6.3" height="6.28" fill="#ccc"/><rect x="64.4" y="232.1" width="6.3" height="10.63" fill="#ccc"/><rect x="80.1" y="224.6" width="6.3" height="18.17" fill="#ccc"/><rect x="87.9" y="220.1" width="6.3" height="22.62" fill="#ccc"/><rect x="72.2" y="228.8" width="6.3" height="13.95" fill="#ccc"/><path d="M107.9,221.5a7.9,7.9,0,0,1,5.9-2.4q4.8,0,7,3.2a6.9,6.9,0,0,1,1.3,3.6h-4a5.5,5.5,0,0,0-1-2.1,3.9,3.9,0,0,0-3.2-1.2,3.9,3.9,0,0,0-3.4,1.8,8.6,8.6,0,0,0-1.2,5,7.5,7.5,0,0,0,1.3,4.8,4.1,4.1,0,0,0,3.3,1.6,3.7,3.7,0,0,0,3.1-1.4,6,6,0,0,0,1-2.2h4a8.6,8.6,0,0,1-2.6,5.1,7.6,7.6,0,0,1-5.4,2,8.1,8.1,0,0,1-6.4-2.6,10.7,10.7,0,0,1-2.3-7.3Q105.2,224.2,107.9,221.5Z" fill="#ccc"/><path d="M130.5,230l1.5-.3a1.1,1.1,0,0,0,.8-1.1,1.2,1.2,0,0,0-.6-1.2,3.9,3.9,0,0,0-1.8-.3,2.4,2.4,0,0,0-1.9.6,2.7,2.7,0,0,0-.5,1.3h-3.6a5.4,5.4,0,0,1,1-3q1.5-1.9,5.1-1.9a9,9,0,0,1,4.1.9,3.5,3.5,0,0,1,1.8,3.5V235q0,.7,0,1.6a2.1,2.1,0,0,0,.2,1l.5.4v.5h-4a4.1,4.1,0,0,1-.2-.8q-.1-.4-.1-.9a7.6,7.6,0,0,1-1.8,1.4,5.4,5.4,0,0,1-2.7.7,4.7,4.7,0,0,1-3.2-1.1,3.9,3.9,0,0,1-1.3-3.1,4,4,0,0,1,2-3.8,9.1,9.1,0,0,1,3.3-.9Zm2.3,1.7-.7.4-1,.3-.8.2-1.7.5a1.7,1.7,0,0,0-.9,1.6,1.6,1.6,0,0,0,.5,1.4,2,2,0,0,0,1.3.4,3.9,3.9,0,0,0,2.2-.7,3,3,0,0,0,1.1-2.6Z" fill="#ccc"/><path d="M147.6,224.1h.3v3.8h-1.1a3.1,3.1,0,0,0-3,1.5,5.6,5.6,0,0,0-.4,2.5v6.8h-3.7V224.4h3.5v2.5a7.8,7.8,0,0,1,1.5-1.9,4.1,4.1,0,0,1,2.7-.9Z" fill="#ccc"/><path d="M157.9,224.1h.3v3.8h-1.1a3.1,3.1,0,0,0-3,1.5,5.6,5.6,0,0,0-.4,2.5v6.8H150V224.4h3.5v2.5A7.8,7.8,0,0,1,155,225a4.1,4.1,0,0,1,2.7-.9Z" fill="#ccc"/><path d="M164.2,222.8h-3.8v-3.4h3.8Zm-3.8,1.7h3.8v14.1h-3.8Z" fill="#ccc"/><path d="M177,224.7a5.8,5.8,0,0,1,2.4,2.1,7,7,0,0,1,1.1,2.9,18.1,18.1,0,0,1,.1,2.8H170.4a3.4,3.4,0,0,0,1.5,3,3.8,3.8,0,0,0,2,.5,2.9,2.9,0,0,0,2.8-1.6h3.8a4.6,4.6,0,0,1-1.4,2.6,6.9,6.9,0,0,1-5.3,2.1,7.7,7.7,0,0,1-5-1.7q-2.2-1.7-2.2-5.7a7.7,7.7,0,0,1,1.9-5.6,6.8,6.8,0,0,1,5.1-2A8.1,8.1,0,0,1,177,224.7Zm-5.5,3.2a3.8,3.8,0,0,0-1,2.2h6.4a3.1,3.1,0,0,0-1-2.2,3.2,3.2,0,0,0-2.2-.8A2.9,2.9,0,0,0,171.5,227.9Z" fill="#ccc"/><path d="M190.4,224.1h.3v3.8h-1.1a3.1,3.1,0,0,0-3,1.5,5.6,5.6,0,0,0-.4,2.5v6.8h-3.7V224.4h3.5v2.5a7.8,7.8,0,0,1,1.5-1.9,4.1,4.1,0,0,1,2.7-.9Z" fill="#ccc"/><path d="M309.3,225.6v-2.5l2.4-.2a3.5,3.5,0,0,0,1.8-1,3.3,3.3,0,0,0,.7-1.3,3.1,3.1,0,0,0,.1-.8h3.1v18.8h-3.8v-13Z" fill="#ccc"/><path d="M323.9,234.9a10.4,10.4,0,0,1,3.7-4,27.5,27.5,0,0,0,3.3-2.6,3.9,3.9,0,0,0,1.2-2.7,3,3,0,0,0-.7-2,2.7,2.7,0,0,0-4.2.5,6.2,6.2,0,0,0-.4,2.3h-3.6a9.1,9.1,0,0,1,.9-3.9q1.5-2.8,5.3-2.8a6.7,6.7,0,0,1,4.8,1.7,5.7,5.7,0,0,1,1.8,4.4,5.9,5.9,0,0,1-1.2,3.7,12.4,12.4,0,0,1-2.7,2.4l-1.5,1.1-1.9,1.4a4.2,4.2,0,0,0-.9,1h8.2v3.3H323.1A8.8,8.8,0,0,1,323.9,234.9Z" fill="#ccc"/><path d="M340,225h3.9v3.9H340Zm0,9.7h3.9v3.9H340Z" fill="#ccc"/><path d="M358.2,222.2a18.5,18.5,0,0,1,0,14.4q-1.4,2.5-5,2.5t-5-2.5a18.6,18.6,0,0,1,0-14.4q1.4-2.5,5-2.5T358.2,222.2ZM351,234.3a2.1,2.1,0,0,0,2.2,1.7,2.1,2.1,0,0,0,2.2-1.7,18.4,18.4,0,0,0,.5-5,18.2,18.2,0,0,0-.5-5,2.1,2.1,0,0,0-2.2-1.6,2.1,2.1,0,0,0-2.2,1.6,17.5,17.5,0,0,0-.5,5A17.7,17.7,0,0,0,351,234.3Z" fill="#ccc"/><path d="M373,222.2a18.5,18.5,0,0,1,0,14.4q-1.4,2.5-5,2.5t-5-2.5a18.6,18.6,0,0,1,0-14.4q1.4-2.5,5-2.5T373,222.2Zm-7.2,12.2A2.1,2.1,0,0,0,368,236a2.1,2.1,0,0,0,2.2-1.7,18.4,18.4,0,0,0,.5-5,18.2,18.2,0,0,0-.5-5,2.1,2.1,0,0,0-2.2-1.6,2.1,2.1,0,0,0-2.2,1.6,17.5,17.5,0,0,0-.5,5A17.7,17.7,0,0,0,365.8,234.3Z" fill="#ccc"/><path d="M397.7,230.3a7.3,7.3,0,0,1-4.8,1.4h-4v6.9h-4V219.5h8.2a6.6,6.6,0,0,1,4.5,1.5,5.8,5.8,0,0,1,1.7,4.6Q399.4,228.9,397.7,230.3Zm-3.1-6.9a3.2,3.2,0,0,0-2.1-.6h-3.6v5.6h3.6a3.1,3.1,0,0,0,2.1-.7,2.8,2.8,0,0,0,.8-2.2A2.6,2.6,0,0,0,394.6,223.4Z" fill="#ccc"/><path d="M415.2,219.5H421v19.1h-3.7V225.6q0-.6,0-1.6t0-1.6l-3.6,16.1h-3.9l-3.6-16.1q0,.5,0,1.6t0,1.6v12.9h-3.7V219.5h5.8l3.5,15Z" fill="#ccc"/><polygon points="675.5 225 670.1 225 670.1 219.7 630.2 219.7 630.2 239.1 670.1 239.1 670.1 233.8 675.5 233.8 675.5 225" fill="#ccc"/><path d="M97.6,1545.7C44.9,1545.7,2,1497.4,2,1438V109.8C2,50.4,44.9,2,97.6,2H634.5c52.7,0,95.6,48.4,95.6,107.8V1438c0,59.4-42.9,107.8-95.6,107.8ZM44,1343.8H688V203.8H44Z" fill="#fff"/><path d="M634.5,4c51.6,0,93.6,47.5,93.6,105.8V1438c0,58.3-42,105.8-93.6,105.8H97.6C46,1543.7,4,1496.3,4,1438V109.8C4,51.5,46,4,97.6,4H634.5M42,1345.8H690V201.8H42v1144M634.5,0H97.6C43.7,0,0,49.2,0,109.8V1438c0,60.6,43.7,109.8,97.6,109.8H634.5c53.9,0,97.6-49.1,97.6-109.8V109.8C732.1,49.2,688.4,0,634.5,0ZM46,1341.8V205.8H686v1136Z" fill="#ccc"/><path d="M433.5,136.8c0,6-6.8,10.8-15.1,10.8H313.7c-8.4,0-15.1-4.8-15.1-10.8h0c0-6,6.8-10.8,15.1-10.8H418.4c8.4,0,15.1,4.8,15.1,10.8Z" fill="#ccc"/><circle cx="366" cy="78.5" r="13.1" fill="#ccc"/><path d="M366,1503c-36.5,0-66.1-29.8-66.1-66.5s29.7-66.5,66.1-66.5,66.1,29.8,66.1,66.5S402.5,1503,366,1503Z" fill="#fff"/><path d="M366,1372.1c35.4,0,64.1,28.9,64.1,64.5S401.4,1501,366,1501s-64.1-28.9-64.1-64.5,28.8-64.5,64.1-64.5m0-4a68.5,68.5,0,1,0,68.1,68.5,68.3,68.3,0,0,0-68.1-68.5Z" fill="#ccc"/><path d="M354.2,1455a8.2,8.2,0,0,1-8.2-8.2v-20.4a8.2,8.2,0,0,1,8.2-8.2h23.6a8.2,8.2,0,0,1,8.2,8.2v20.4a8.2,8.2,0,0,1-8.2,8.2Z" fill="#fff"/><path d="M377.9,1420.1a6.2,6.2,0,0,1,6.2,6.2v20.4a6.2,6.2,0,0,1-6.2,6.2H354.2a6.2,6.2,0,0,1-6.2-6.2v-20.4a6.2,6.2,0,0,1,6.2-6.2h23.6m0-4H354.2a10.2,10.2,0,0,0-10.2,10.2v20.4a10.2,10.2,0,0,0,10.2,10.2h23.6a10.2,10.2,0,0,0,10.2-10.2v-20.4a10.2,10.2,0,0,0-10.2-10.2Z" fill="#ccc"/><path d="M78.9,1044.8s51.9,33.7,102.1,0C180.9,1044.8,143.5,992.6,78.9,1044.8Z" fill="#f16022"/><path d="M59.9,1029.5l20,15.2-20,14.7S73.7,1035.2,59.9,1029.5Z" fill="#f16022"/><circle cx="160.7" cy="1040.7" r="2.3" fill="#fff"/><polygon points="58.9 515.1 58.9 545.3 157.9 552.4 157.9 542 66.7 533.7 66.7 526.2 157.9 533.7 157.9 523.2 58.9 515.1" fill="#f16022"/><polygon points="58.9 510.4 157.8 518.6 78.9 493.7 58.9 510.4" fill="#f16022"/><path d="M140.8,653.7s-32.4-29.8-54.8,0,51.7,12.7,51.7,12.7,7.5-22.7-29.8-22.3-35.5,56.5,21.9,19.7-26.3-12.7-37.7-10.1S80.7,680,146,663.8c24-6,26.9-10.8,20.5-13.7-11-5.1-49.3-4.7-54.9,4.5-1.6,2.7-1.2,4.8.7,6.1,8,6.1,42.1.6,44.6-6.1,3.1-8.3-81.1,7-49.1,11.4a212.4,212.4,0,0,0,59.2-.4s40.3-22.6-72.8-7.2,110.3,34.4,75.4,11.5S70,655.2,94.8,662.5s43.8,20.6,69.7,13.1-42.9-15.3-42.9-15.3l37.3,12.2s-71.9-25-82.8-3.1,86.8,2.2,86.8,2.2l-93.8-2.2" fill="#f4f3f2" stroke="#f16022" stroke-miterlimit="10" stroke-width="3"/><path d="M119.4,646.7s1.5-8.2-5.1-9.1c0,0-1.8.5-1.9,1.9s-2.1-5.2-4.5-3.4-1.3,2.4-4.9,1.1-4.8-.9-8,0c0,0,1.2,6.2,3.5,7.4,0,0-.8,6.3,2.8,6.1,0,0,.6,5,4.6,2.5,0,0-3.8,8.5,6.8,3.1s6.7-2.4,6.7-2.4Z" fill="#f4f3f2" stroke="#f16022" stroke-miterlimit="10"/><line x1="102.6" y1="642.9" x2="119.8" y2="653.6" fill="#f4f3f2" stroke="#f16022" stroke-miterlimit="10"/><path d="M119.1,648.1s-4.7-7.1,1.4-10.3c0,0,2-.2,2.6,1.1s0-5.6,3.1-4.8,2.2,1.7,5.3-.7,4.3-2.6,7.9-2.8c0,0,1.3,6.2-.5,8.1,0,0,3.2,5.6-.4,6.7,0,0,1.4,4.9-3.5,4,0,0,7,6.6-5.5,5.3s-7.5.1-7.5.1Z" fill="#f4f3f2" stroke="#f16022" stroke-miterlimit="10"/><line x1="134.1" y1="638.6" x2="121.4" y2="654.8" fill="#f4f3f2" stroke="#f16022" stroke-miterlimit="10"/><path d="M61.9,430.7s-2.5,19.4,89.2-11.7c0,0,56.5-30.8-27.9-31.7,0,0,26.4,27.9-7.4,0,0,0-10.4-.3-12.3,1.9,0,0,30.5,30.8-5.4,3.8,0,0-3.2-2.2-10.2,3.5,0,0,24.1,29.8-5.7,3.5C82.2,399.9,52.7,418.3,61.9,430.7Z" fill="#f05423"/><path d="M164.7,766.2s4.6,31.3-26.4,42.9a2.4,2.4,0,0,0-1.5,2.5v.2a2.4,2.4,0,0,1-1.6,2.5,63.8,63.8,0,0,1-38.6-.1,2.4,2.4,0,0,1-1.7-2.5h0a2.4,2.4,0,0,0-1.6-2.5c-6.5-2.3-28.6-12.4-26.5-42.2a3.2,3.2,0,0,1,2.1-2.8c9.4-3.5,52-17.2,95.8,2" fill="#f16022"/><ellipse cx="115.3" cy="769.9" rx="43.1" ry="7" fill="#fff"/><path d="M119.1,772.1s-19.9-8.5,1.6-24c0,0,13-12.1-3.7-18.8,0,0,15.6,4.4-8.6,24,0,0-12.1,9.8,10.8,18.8" fill="#f16022"/></svg>