<svg xmlns="http://www.w3.org/2000/svg"><symbol id="facebook" viewBox="0 0 299.5 289.3"><rect width="299.5" height="289.3" x=".9" y=".9" fill="#ed1c24" rx="32.2" ry="32.2"/><path fill="#fff" d="M195.8 79.8v-34s-72.5-15.5-79.1 39.4v38.3H89.1v38.6h27.6v104.1h39.7V161.5l39.4-.2v-36.8h-39.7V97.7s-2.8-17.3 16.6-17.8c7-.2 23.1-.1 23.1-.1z"/></symbol>
<symbol id="linkdin" viewBox="0 0 299.5 289.3"><rect width="299.5" height="289.3" x=".6" fill="#ed1c24" rx="32.2" ry="32.2"/><circle cx="71.9" cy="70.9" r="22.4" fill="#fff"/><path fill="#fff" d="M51.3 106.7v130.7h43.5V106.2l-43.5.5zm67.6 0V238h43.6v-78.7c0-10.2 13-20.8 22.8-21.3 12.2-.6 21.5 11 22.6 22.2.6 5.8 1.4 77.2 1.6 77.2h41.8c0-21.4.6-42.7.3-64.1-.2-11.7-.3-21.8-4.6-32.6-6.3-15.4-17-31.7-34-36-7.3-1.8-14.9-1.1-22.1 1.1a69 69 0 0 0-13.8 6.2c-2.2 1.3-14.6 7.8-14.6 10.2v-15.5z"/></symbol>
<symbol id="mail" viewBox="0 0 299.5 289.3"><rect width="299.5" height="289.3" fill="#ed1c24" rx="32.2" ry="32.2"/><path fill="#fff" d="M53.2 87.6h196a3.1 3.1 0 0 1 3.1 3.1v116.7H50.7V90.1a2.5 2.5 0 0 1 2.5-2.5z"/><path fill="none" stroke="#ed1c24" stroke-miterlimit="10" stroke-width="10" d="M51.4 88.8l100.1 48.9 99.8-48.9"/></symbol>
</svg>
