<?xml version="1.0" encoding="utf-8"?>
<!-- Generator: Adobe Illustrator 21.0.2, SVG Export Plug-In . SVG Version: 6.00 Build 0)  -->
<svg version="1.1" id="Layer_1" xmlns="http://www.w3.org/2000/svg" xmlns:xlink="http://www.w3.org/1999/xlink" x="0px" y="0px"
	 viewBox="0 0 31.7 31.7" style="enable-background:new 0 0 31.7 31.7;" xml:space="preserve">
<style type="text/css">
	.st0{fill:#E31E26;}
	.st1{fill:#020202;}
	.st2{fill:#FFFFFF;}
	.st3{fill:#FFFFFF;stroke:#231F20;stroke-width:0.75;stroke-miterlimit:10;}
	.st4{fill:#6D6C6D;}
</style>
<g id="logo-256">
	<g>
		<path class="st0" d="M-343.5,14.5c0,0-40.9-2.8-59.8-34.8s8.4-42.3,22.3-34.4c0,0-7-45,37-21.4c0,0,20,3.7,19.3,79.6L-343.5,14.5z
			"/>
		<path class="st0" d="M-341.2,39c0,0-20.9,35.2-58.1,37.7c-37.1,2.4-33.9-26.6-20.6-35.4c0,0-43.3-14.1-2.4-42.7
			c0,0,12.3-16.2,79.7,18.7L-341.2,39z"/>
		<path class="st0" d="M-318.1,37.3c0,0,32.3,25.3,29.9,62.4s-30.7,30.2-37.8,15.9c0,0-19.5,41.2-42.7-3.1c0,0-14.5-14.3,28.8-76.7
			L-318.1,37.3z"/>
		<path class="st0" d="M-322.2,2.3c0,0-13.7-38.7,8.3-68.7s42.1-9.1,40.4,6.9c0,0,38.5-24.3,34.3,25.5c0,0,4.5,19.8-65.5,49.2
			L-322.2,2.3z"/>
		<path class="st0" d="M-306.7,16.8c0,0,34.9-21.5,68.9-6.3s17.7,39.3,1.8,41c0,0,31.8,32.6-17.8,38.9c0,0-18.4,8.6-61.9-53.7
			L-306.7,16.8z"/>
	</g>
</g>
<g id="logo-64">
	<g>
		<path class="st0" d="M-106.5,12.6c0,0-10.8-0.7-15.8-9.2s2.2-11.2,5.9-9.1c0,0-1.9-11.9,9.8-5.7c0,0,5.3,1,5.1,21L-106.5,12.6z"/>
		<path class="st0" d="M-105.9,19.1c0,0-5.5,9.3-15.3,9.9c-9.8,0.6-9-7-5.4-9.4c0,0-11.4-3.7-0.6-11.3c0,0,3.2-4.3,21.1,4.9
			L-105.9,19.1z"/>
		<path class="st0" d="M-99.7,18.6c0,0,8.5,6.7,7.9,16.5s-8.1,8-10,4.2c0,0-5.1,10.9-11.3-0.8c0,0-3.8-3.8,7.6-20.2L-99.7,18.6z"/>
		<path class="st0" d="M-100.8,9.4c0,0-3.6-10.2,2.2-18.2S-87.5-11.2-88-7c0,0,10.2-6.4,9.1,6.7c0,0,1.2,5.2-17.3,13L-100.8,9.4z"/>
		<path class="st0" d="M-96.7,13.2c0,0,9.2-5.7,18.2-1.7s4.7,10.4,0.5,10.8c0,0,8.4,8.6-4.7,10.3c0,0-4.9,2.3-16.3-14.2L-96.7,13.2z
			"/>
	</g>
</g>
<g id="logo-16">
</g>
<circle class="st1" cx="16" cy="15.6" r="15.1"/>
<path class="st2" d="M14.1,14.1c0,0-5.4-0.4-7.9-4.5s1.1-5.5,3-4.4c0,0-0.9-5.8,4.9-2.8c0,0,2.7,0.5,2.5,10.3L14.1,14.1z"/>
<path class="st3" d="M15.6,17.6c0,0-3,5-8.2,5.3c-5.3,0.3-4.8-3.8-2.9-5c0,0-6.1-2-0.3-6c0,0,1.7-2.3,11.3,2.7L15.6,17.6z"/>
<path class="st2" d="M18,18.1c0,0,3.8,2.7,3.4,7.7s-4.1,4.2-4.9,2.3c0,0-4,3.7-5.6-0.4c0,0-0.6-5.5,4.3-9.7L18,18.1z"/>
<path class="st3" d="M17.2,13c0,0-2-5.3,0.5-9.2c2.5-3.9,5.1-0.9,5,1.2c0,0,4.5-3,4.4,3.7c0,0,0.7,2.7-7.7,6.1L17.2,13z"/>
<path class="st2" d="M19.2,15.3c0,0,4.2-2.9,8.6-1.1s2.2,5,0,5.3c0,0,4.1,4.1-2.6,5.2c0,0-4.6-1-7.1-7.1L19.2,15.3z"/>
<ellipse transform="matrix(0.866 -0.5 0.5 0.866 -5.9015 8.9391)" class="st4" cx="13.7" cy="15.5" rx="0.7" ry="0.7"/>
<ellipse transform="matrix(0.866 -0.5 0.5 0.866 -3.8299 9.6028)" class="st4" cx="16" cy="11.9" rx="0.7" ry="0.7"/>
<ellipse transform="matrix(0.866 -0.5 0.5 0.866 -4.2905 10.8364)" class="st4" cx="18.1" cy="13.4" rx="0.7" ry="0.7"/>
<ellipse transform="matrix(0.866 -0.5 0.5 0.866 -6.603 9.6407)" class="st4" cx="14.7" cy="17.1" rx="0.7" ry="0.7"/>
<ellipse transform="matrix(0.866 -0.5 0.5 0.866 -5.3086 10.7571)" class="st4" cx="17.4" cy="15.3" rx="0.7" ry="0.7"/>
<ellipse transform="matrix(0.866 -0.5 0.5 0.866 -6.1296 10.5149)" class="st4" cx="16.6" cy="16.7" rx="0.7" ry="0.7"/>
<ellipse transform="matrix(0.866 -0.5 0.5 0.866 -4.6919 10.006)" class="st4" cx="16.3" cy="13.8" rx="0.7" ry="0.7"/>
<ellipse transform="matrix(0.866 -0.5 0.5 0.866 -5.3931 9.5549)" class="st4" cx="15.1" cy="14.8" rx="0.7" ry="0.7"/>
<ellipse transform="matrix(0.866 -0.5 0.5 0.866 -4.4757 8.957)" class="st4" cx="14.5" cy="12.8" rx="0.7" ry="0.7"/>
</svg>
