<?xml version="1.0" encoding="utf-8"?>
<!-- Generator: Adobe Illustrator 21.0.2, SVG Export Plug-In . SVG Version: 6.00 Build 0)  -->
<svg version="1.1" id="Layer_1" xmlns="http://www.w3.org/2000/svg" xmlns:xlink="http://www.w3.org/1999/xlink" x="0px" y="0px"
	 viewBox="0 0 16 16" style="enable-background:new 0 0 16 16;" xml:space="preserve">
<style type="text/css">
	.st0{fill:#020202;}
	.st1{fill:#FFFFFF;}
	.st2{fill:#FFFFFF;stroke:#231F20;stroke-width:0.75;stroke-miterlimit:10;}
	.st3{fill:#6D6C6D;}
</style>
<g id="logo-16">
</g>
<circle class="st0" cx="7.8" cy="8.4" r="7.2"/>
<path class="st1" d="M6.9,7.7c0,0-2.6-0.2-3.8-2.1s0.5-2.6,1.4-2.1c0,0-0.4-2.8,2.3-1.3c0,0,1.3,0.2,1.2,4.9L6.9,7.7z"/>
<path class="st2" d="M7.6,9.3c0,0-1.4,2.4-3.9,2.5C1.2,12,1.4,10.1,2.3,9.5c0,0-2.9-1-0.1-2.9c0,0,0.8-1.1,5.4,1.3L7.6,9.3z"/>
<path class="st1" d="M8.7,9.6c0,0,1.8,1.3,1.6,3.7s-2,2-2.3,1.1c0,0-1.9,1.8-2.7-0.2c0,0-0.3-2.6,2-4.6L8.7,9.6z"/>
<path class="st2" d="M8.3,7.1c0,0-1-2.5,0.2-4.4S11,2.3,11,3.3c0,0,2.1-1.4,2.1,1.8c0,0,0.3,1.3-3.7,2.9L8.3,7.1z"/>
<path class="st1" d="M9.3,8.2c0,0,2-1.4,4.1-0.5s1,2.4,0,2.5c0,0,2,2-1.2,2.5c0,0-2.2-0.5-3.4-3.4L9.3,8.2z"/>
<ellipse transform="matrix(0.866 -0.5 0.5 0.866 -3.2749 4.4623)" class="st3" cx="6.7" cy="8.3" rx="0.3" ry="0.3"/>
<ellipse transform="matrix(0.866 -0.5 0.5 0.866 -2.2726 4.7713)" class="st3" cx="7.8" cy="6.6" rx="0.3" ry="0.3"/>
<ellipse transform="matrix(0.866 -0.5 0.5 0.866 -2.4911 5.3677)" class="st3" cx="8.8" cy="7.3" rx="0.3" ry="0.3"/>
<ellipse transform="matrix(0.866 -0.5 0.5 0.866 -3.5913 4.7932)" class="st3" cx="7.1" cy="9.1" rx="0.3" ry="0.3"/>
<ellipse transform="matrix(0.866 -0.5 0.5 0.866 -2.9902 5.3294)" class="st3" cx="8.4" cy="8.2" rx="0.3" ry="0.3"/>
<ellipse transform="matrix(0.866 -0.5 0.5 0.866 -3.3684 5.2231)" class="st3" cx="8.1" cy="8.9" rx="0.3" ry="0.3"/>
<ellipse transform="matrix(0.866 -0.5 0.5 0.866 -2.7024 4.9752)" class="st3" cx="7.9" cy="7.5" rx="0.3" ry="0.3"/>
<ellipse transform="matrix(0.866 -0.5 0.5 0.866 -3.0231 4.7446)" class="st3" cx="7.3" cy="8" rx="0.3" ry="0.3"/>
<ellipse transform="matrix(0.866 -0.5 0.5 0.866 -2.5783 4.4718)" class="st3" cx="7.1" cy="7" rx="0.3" ry="0.3"/>
</svg>
